<svg width="532" height="154" viewBox="0 0 532 154" fill="none" xmlns="http://www.w3.org/2000/svg">
<path d="M425.168 153.104C417.966 153.104 411.555 151.567 405.934 148.493C400.313 145.331 395.877 141.028 392.627 135.582C389.378 130.137 387.753 123.945 387.753 117.007C387.753 109.98 389.378 103.788 392.627 98.4306C395.877 92.9852 400.313 88.7255 405.934 85.6515C411.555 82.5775 417.966 81.0405 425.168 81.0405C432.458 81.0405 438.914 82.5775 444.535 85.6515C450.244 88.7255 454.679 92.9413 457.841 98.2989C461.09 103.656 462.715 109.892 462.715 117.007C462.715 123.945 461.09 130.137 457.841 135.582C454.679 141.028 450.244 145.331 444.535 148.493C438.914 151.567 432.458 153.104 425.168 153.104ZM425.168 139.008C429.208 139.008 432.809 138.129 435.971 136.373C439.133 134.616 441.592 132.069 443.349 128.732C445.193 125.394 446.116 121.486 446.116 117.007C446.116 112.439 445.193 108.531 443.349 105.281C441.592 101.944 439.133 99.3968 435.971 97.6402C432.809 95.8836 429.252 95.0053 425.3 95.0053C421.26 95.0053 417.659 95.8836 414.497 97.6402C411.423 99.3968 408.964 101.944 407.119 105.281C405.275 108.531 404.353 112.439 404.353 117.007C404.353 121.486 405.275 125.394 407.119 128.732C408.964 132.069 411.423 134.616 414.497 136.373C417.659 138.129 421.216 139.008 425.168 139.008Z" fill="#6C77FF"/>
<path d="M336.445 153.5C329.243 153.5 322.612 152.358 316.552 150.074C310.579 147.703 305.353 144.409 300.874 140.194C296.395 135.89 292.925 130.84 290.466 125.043C288.007 119.246 286.777 112.923 286.777 106.072C286.777 99.2214 288.007 92.8977 290.466 87.1009C292.925 81.3042 296.395 76.298 300.874 72.0821C305.441 67.7785 310.755 64.4849 316.815 62.2014C322.875 59.83 329.506 58.6443 336.708 58.6443C344.525 58.6443 351.552 59.9178 357.787 62.4649C364.111 65.0119 369.425 68.7446 373.728 73.6631L362.925 84.2026C359.324 80.6016 355.416 77.9667 351.2 76.2979C347.072 74.5414 342.505 73.6631 337.499 73.6631C332.668 73.6631 328.189 74.4535 324.061 76.0345C319.933 77.6154 316.376 79.855 313.39 82.7534C310.403 85.6518 308.076 89.0771 306.407 93.0294C304.826 96.9817 304.036 101.329 304.036 106.072C304.036 110.727 304.826 115.031 306.407 118.983C308.076 122.935 310.403 126.404 313.39 129.391C316.376 132.289 319.889 134.529 323.929 136.11C327.969 137.691 332.449 138.481 337.367 138.481C341.934 138.481 346.326 137.778 350.541 136.373C354.845 134.88 358.929 132.421 362.794 128.995L372.543 141.775C367.712 145.639 362.091 148.581 355.68 150.601C349.356 152.534 342.944 153.5 336.445 153.5ZM356.338 139.535V105.018H372.543V141.775L356.338 139.535Z" fill="#6C77FF"/>
<path d="M186.907 152.182L161.085 81.8312H176.631L198.764 143.883H191.386L214.573 81.8312H228.406L250.934 143.883H243.689L266.48 81.8312H281.104L255.15 152.182H239.341L218.789 97.2452H223.663L202.716 152.182H186.907Z" fill="#6C77FF"/>
<path d="M135.967 152.182V137.954L135.045 134.924V110.024C135.045 105.193 133.596 101.461 130.698 98.8259C127.799 96.1032 123.408 94.7418 117.523 94.7418C113.571 94.7418 109.662 95.3566 105.798 96.5862C102.021 97.8158 98.8154 99.5285 96.1806 101.724L89.7251 89.7356C93.5018 86.8372 97.9811 84.6854 103.163 83.2801C108.433 81.787 113.878 81.0405 119.499 81.0405C129.687 81.0405 137.548 83.4997 143.081 88.4181C148.703 93.2487 151.513 100.758 151.513 110.946V152.182H135.967ZM113.834 153.104C108.565 153.104 103.953 152.226 100.001 150.469C96.0488 148.625 92.9748 146.122 90.779 142.96C88.6711 139.71 87.6172 136.065 87.6172 132.025C87.6172 128.073 88.5394 124.516 90.3838 121.354C92.3161 118.192 95.434 115.689 99.7376 113.845C104.041 112 109.75 111.078 116.864 111.078H137.285V122.013H118.05C112.429 122.013 108.652 122.935 106.72 124.779C104.788 126.536 103.822 128.732 103.822 131.367C103.822 134.353 105.007 136.724 107.379 138.481C109.75 140.237 113.044 141.116 117.26 141.116C121.3 141.116 124.901 140.193 128.063 138.349C131.312 136.505 133.64 133.782 135.045 130.181L137.812 140.062C136.231 144.19 133.376 147.395 129.248 149.679C125.208 151.963 120.07 153.104 113.834 153.104Z" fill="#6C77FF"/>
<path d="M0.541992 152.182V59.9616H38.4843C46.6524 59.9616 53.6349 61.279 59.4316 63.9139C65.3162 66.5488 69.8394 70.3255 73.0013 75.2439C76.1631 80.1623 77.744 86.003 77.744 92.7658C77.744 99.5286 76.1631 105.369 73.0013 110.288C69.8394 115.206 65.3162 118.983 59.4316 121.618C53.6349 124.253 46.6524 125.57 38.4843 125.57H10.0276L17.6687 117.534V152.182H0.541992ZM17.6687 119.378L10.0276 111.078H37.6938C45.2472 111.078 50.9122 109.497 54.6888 106.335C58.5533 103.086 60.4856 98.5625 60.4856 92.7658C60.4856 86.8812 58.5533 82.358 54.6888 79.1962C50.9122 76.0343 45.2472 74.4534 37.6938 74.4534H10.0276L17.6687 66.0218V119.378Z" fill="#6C77FF"/>
<g clip-path="url(#clip0_18_1862)">
<path d="M496.043 63.9608C508.301 62.7153 511.941 73.8813 512.496 83.9808C513.051 94.1132 511.835 110.824 497.284 103.3C493.629 101.411 490.956 99.3108 486.874 97.8535C480.378 95.534 469.585 96.8745 469.694 87.0307C469.8 77.6581 487.287 64.8521 496.043 63.9608Z" fill="#FF9472"/>
<path d="M432.902 28.9687C441.407 28.2419 448.436 37.315 452.313 43.8385C456.505 50.8881 461.537 63.7928 448.961 64.9872C442.845 65.568 437.93 64.5379 431.595 66.4811C427.4 67.7705 424.416 70.4588 419.695 68.8151C416.124 67.5696 414.119 64.1069 413.831 60.4616C413.042 50.4169 421.368 29.9549 432.902 28.9687Z" fill="#FF9472"/>
<path d="M438.376 0.514849C443.955 0.142282 446.19 7.26123 445.803 11.7941C445.503 15.2787 442.681 21.0754 438.978 21.9192C427.48 24.5308 427.776 1.22346 438.376 0.514849Z" fill="#FF9472"/>
<path d="M517.62 42.6222C526.58 41.1027 527.299 50.9027 523.111 56.5898C520.365 60.3192 513.592 64.443 509.484 60.4726C504.091 55.2603 511.441 43.6669 517.623 42.6186L517.62 42.6222Z" fill="#FF9472"/>
<path d="M497.135 35.233C502.703 34.6741 505.182 42.3519 504.854 46.8045C504.5 51.593 500.304 58.6718 494.666 56.4291C487.371 53.5253 489.174 36.0292 497.135 35.233Z" fill="#FF9472"/>
<path d="M476.077 43.9846C481.236 43.1738 485.87 50.1576 486.254 54.727C487.199 65.999 476.362 68.2307 471.852 58.4709C469.811 54.0549 470.038 44.9343 476.077 43.9846Z" fill="#FF9472"/>
<path d="M416.154 5.52626C423.548 5.62488 429.744 18.4492 424.501 24.1108C420.075 28.8884 413.824 23.4935 411.721 19.0957C409.431 14.2998 408.825 5.42398 416.15 5.5226L416.154 5.52626Z" fill="#FF9472"/>
<path d="M402.57 23.2049C406.773 22.931 411.593 26.2476 413.601 29.7942C420.064 41.2087 406.569 45.1572 399.62 36.6685C395.947 32.1831 395.037 23.6907 402.57 23.2013V23.2049Z" fill="#FF9472"/>
<path d="M527.708 78.8233C524.309 82.1837 517.404 84.357 514.987 78.7502C511.825 71.4121 522.531 60.1146 529.151 64.8557C533.521 67.986 530.903 75.6638 527.705 78.8233H527.708Z" fill="#FF9472"/>
<path d="M449.184 34.2577C443.74 29.0856 447.391 14.7126 455.487 15.7864C460.486 16.4512 461.957 24.0523 461.037 28.125C459.847 33.3921 454.227 39.0463 449.184 34.2541V34.2577Z" fill="#FF9472"/>
</g>
<defs>
<clipPath id="clip0_18_1862">
<rect width="134.599" height="104.688" fill="white" transform="translate(396.859 0.500244)"/>
</clipPath>
</defs>
</svg>
